PathFileType	4	(X/Y/Z)	/Users/itak/Documents/Research/Walk-IL/dataset/trc/00025_00004.trc
DataRate	CameraRate	NumFrames	NumMarkers	Units	OrigDataRate	OrigDataStartFrame	OrigNumFrames
100.000000	100.000000	4	53	mm	100.000000	0	860
Frame#	Time	RPSI			LPSI			L3			STRN			T10			C7			CLAV			RBAK			LBAK			LSHO			LUPA			LAEL			LAOL			LWTS			LWPS			LFRA			LIFD			LHPS			LHTS			RSHO			RUPA			RAEL			RAOL			RWTS			RWPS			RFRA			RIFD			RHTS			RHPS			RBHD			LFHD			RFHD			LBHD			LHIP			RHIP			RASI			LASI			LKNE			LTHI			LANK			LTIP			LTOE			LMT1			LMT5			LHEE			RKNE			RTHI			RANK			RTIP			RTOE			RMT1			RMT5			RHEE			
		X1	Y1	Z1	X2	Y2	Z2	X3	Y3	Z3	X4	Y4	Z4	X5	Y5	Z5	X6	Y6	Z6	X7	Y7	Z7	X8	Y8	Z8	X9	Y9	Z9	X10	Y10	Z10	X11	Y11	Z11	X12	Y12	Z12	X13	Y13	Z13	X14	Y14	Z14	X15	Y15	Z15	X16	Y16	Z16	X17	Y17	Z17	X18	Y18	Z18	X19	Y19	Z19	X20	Y20	Z20	X21	Y21	Z21	X22	Y22	Z22	X23	Y23	Z23	X24	Y24	Z24	X25	Y25	Z25	X26	Y26	Z26	X27	Y27	Z27	X28	Y28	Z28	X29	Y29	Z29	X30	Y30	Z30	X31	Y31	Z31	X32	Y32	Z32	X33	Y33	Z33	X34	Y34	Z34	X35	Y35	Z35	X36	Y36	Z36	X37	Y37	Z37	X38	Y38	Z38	X39	Y39	Z39	X40	Y40	Z40	X41	Y41	Z41	X42	Y42	Z42	X43	Y43	Z43	X44	Y44	Z44	X45	Y45	Z45	X46	Y46	Z46	X47	Y47	Z47	X48	Y48	Z48	X49	Y49	Z49	X50	Y50	Z50	X51	Y51	Z51	X52	Y52	Z52	X53	Y53	Z53	

1	0	-25.81553649902344	1071.792846679688	1386.616455078125	-38.05872344970703	1063.81005859375	1223.254516601562	-40.27527236938477	1124.193237304688	1295.954711914062	173.9504241943359	1320.715576171875	1294.364379882812	-72.67965698242188	1268.343139648438	1293.357543945312	-27.59181213378906	1536.823974609375	1280.766479492188	131.0175170898438	1445.654541015625	1289.091918945312	-77.01052856445312	1399.586791992188	1363.029174804688	-42.82146453857422	1494.75927734375	1182.779052734375	61.00304412841797	1501.136352539062	1110.12353515625	35.54537582397461	1373.52294921875	1033.564086914062	43.2974967956543	1153.658203125	1016.014953613281	-11.02870082855225	1141.24658203125	1107.27392578125	137.5180969238281	904.2120361328125	1075.130004882812	60.59247970581055	886.5151977539062	1034.525756835938	58.18803787231445	1037.957397460938	1012.320007324219	171.0143432617188	723.882568359375	1100.952880859375	96.30225372314453	796.6555786132812	1038.06005859375	162.0669250488281	812.0962524414062	1063.975463867188	49.95730590820312	1522.169311523438	1457.748168945312	37.89755249023438	1451.885375976562	1528.790893554688	8.41090202331543	1179.583984375	1549.113647460938	10.28985691070557	1153.674438476562	1452.051513671875	144.1220703125	922.254638671875	1519.225708007812	76.65818023681641	905.6448974609375	1578.681518554688	22.69259452819824	1103.78173828125	1562.878540039062	160.5406036376953	740.8134155273438	1501.624877929688	179.9687957763672	813.5032958984375	1535.276245117188	120.0768814086914	807.0908813476562	1580.451171875	-2.246541738510132	1713.503051757812	1251.662475585938	210.499755859375	1739.286254882812	1293.481201171875	171.4728698730469	1739.082885742188	1203.243041992188	62.03473663330078	1711.291259765625	1380.958618164062	53.01682662963867	961.8558959960938	1109.468139648438	95.69015502929688	959.5987548828125	1478.405151367188	193.0650634765625	993.2835083007812	1398.532104492188	172.726806640625	1011.568908691406	1164.710327148438	87.72223663330078	518.6649780273438	1149.473876953125	68.13158416748047	654.9320678710938	1118.006591796875	-35.7487907409668	43.72603225708008	1149.472900390625	-8.255905151367188	290.7438659667969	1134.224731445312	188.1985321044922	38.30260848999023	1195.828002929688	130.3656005859375	48.27317428588867	1215.961547851562	86.13011169433594	39.54040908813477	1119.394409179688	-100.1344985961914	50.70858383178711	1207.18310546875	87.69961547851562	522.8450317382812	1426.120727539062	116.4631652832031	791.6448364257812	1470.596801757812	-40.14717483520508	46.89274978637695	1404.318237304688	57.20384979248047	402.2713928222656	1426.29052734375	190.5905151367188	45.26517868041992	1353.575927734375	125.760383605957	49.47895812988281	1326.583862304688	110.2216415405273	43.91109466552734	1421.706909179688	-97.51319885253906	48.02241516113281	1360.58349609375	
2	0.01	-25.67970275878906	1071.765747070312	1386.707641601562	-38.07878875732422	1063.830078125	1223.331176757812	-40.20352172851562	1124.179565429688	1296.081909179688	173.9705047607422	1320.7138671875	1294.35791015625	-72.59027862548828	1268.285278320312	1293.598388671875	-27.56021499633789	1536.855834960938	1281.08544921875	131.0218811035156	1445.636962890625	1289.187622070312	-76.95355987548828	1399.557373046875	1363.311645507812	-42.96243667602539	1494.802734375	1183.047119140625	60.82722854614258	1501.231201171875	1110.316162109375	35.27696228027344	1373.636352539062	1033.735107421875	43.04563522338867	1153.762939453125	1016.11279296875	-11.17648983001709	1141.33935546875	1107.4228515625	137.3938903808594	904.3092651367188	1075.0458984375	60.34820175170898	886.615478515625	1034.35498046875	57.96934127807617	1038.089233398438	1012.345520019531	170.9894561767578	724.0654296875	1100.750366210938	96.13710784912109	796.7952270507812	1037.956665039062	161.9194030761719	812.1906127929688	1063.815795898438	50.15917587280273	1522.075073242188	1457.957397460938	38.19811248779297	1451.739501953125	1528.989868164062	8.706209182739258	1179.520874023438	1549.219360351562	10.44834613800049	1153.598388671875	1452.166625976562	144.2349548339844	922.1474609375	1519.194091796875	76.99153137207031	905.4711303710938	1578.693969726562	22.9567928314209	1103.661865234375	1562.957641601562	160.6311950683594	740.5588989257812	1501.569091796875	180.0835571289062	813.3743896484375	1535.199462890625	120.2612838745117	806.927490234375	1580.44775390625	-2.667506217956543	1713.410034179688	1253.307495117188	210.7109069824219	1739.2529296875	1291.879516601562	170.2116088867188	1739.115112304688	1202.242309570312	63.5897216796875	1711.117065429688	1381.535888671875	52.93411254882812	961.8731079101562	1109.466064453125	95.77749633789062	959.5074462890625	1478.346313476562	193.1864929199219	993.245849609375	1398.39892578125	172.6407012939453	1011.588317871094	1164.626831054688	87.66649627685547	518.6674194335938	1149.435913085938	68.06664276123047	654.9380493164062	1117.98046875	-35.76514053344727	43.74290084838867	1149.459228515625	-8.299358367919922	290.7449645996094	1134.216796875	188.1968688964844	38.30821228027344	1195.8134765625	130.3600158691406	48.27135848999023	1215.955200195312	86.13471984863281	39.53824996948242	1119.384643554688	-100.1300430297852	50.71514511108398	1207.173095703125	87.80221557617188	522.8365478515625	1426.048706054688	116.5948181152344	791.6224975585938	1470.530029296875	-40.15114212036133	46.88320922851562	1404.306518554688	57.30023956298828	402.2694702148438	1426.233154296875	190.5965881347656	45.26253890991211	1353.571655273438	125.7612609863281	49.47805023193359	1326.582885742188	110.220329284668	43.90693664550781	1421.7001953125	-97.50975799560547	48.03230667114258	1360.586791992188	
3	0.02	-25.49521827697754	1071.7275390625	1386.837646484375	-38.10735702514648	1063.852661132812	1223.428833007812	-40.11306381225586	1124.15478515625	1296.246704101562	173.9954071044922	1320.710693359375	1294.348388671875	-72.49368286132812	1268.222534179688	1293.898071289062	-27.52384948730469	1536.884155273438	1281.4892578125	131.0183868408203	1445.61328125	1289.302124023438	-76.90789794921875	1399.521362304688	1363.6640625	-43.1437873840332	1494.853881835938	1183.398071289062	60.58642959594727	1501.351684570312	1110.557983398438	34.93392944335938	1373.777709960938	1033.952026367188	42.71738433837891	1153.89794921875	1016.230224609375	-11.3639497756958	1141.454223632812	1107.610107421875	137.2460327148438	904.4349365234375	1074.93212890625	60.07014846801758	886.7482299804688	1034.181396484375	57.68535995483398	1038.255737304688	1012.379821777344	170.9695281982422	724.28662109375	1100.48291015625	95.94061279296875	796.9677124023438	1037.824951171875	161.7487487792969	812.3174438476562	1063.605712890625	50.41814041137695	1521.956665039062	1458.223266601562	38.58123779296875	1451.563842773438	1529.243408203125	9.087684631347656	1179.4423828125	1549.369384765625	10.65843486785889	1153.504028320312	1452.314208984375	144.4074249267578	921.9991455078125	1519.13427734375	77.3939208984375	905.2568969726562	1578.7138671875	23.28448867797852	1103.50048828125	1563.046020507812	160.7225799560547	740.2713623046875	1501.508666992188	180.2285766601562	813.2025146484375	1535.076538085938	120.4955673217773	806.7088012695312	1580.43896484375	-3.142124891281128	1713.29833984375	1255.345703125	210.9470672607422	1739.194946289062	1289.892211914062	168.6655120849609	1739.148071289062	1201.03173828125	65.54540252685547	1710.896850585938	1382.233154296875	52.82531356811523	961.8936157226562	1109.464477539062	95.91092681884766	959.4124145507812	1478.272094726562	193.3353576660156	993.2026977539062	1398.231079101562	172.5244903564453	1011.615783691406	1164.519409179688	87.59642028808594	518.6697998046875	1149.3876953125	67.98196411132812	654.9458618164062	1117.945434570312	-35.78028106689453	43.7532958984375	1149.447021484375	-8.351284027099609	290.7442932128906	1134.207641601562	188.1939392089844	38.3133659362793	1195.797607421875	130.3568878173828	48.27252578735352	1215.946533203125	86.13829040527344	39.53442001342773	1119.371704101562	-100.1255798339844	50.71839904785156	1207.163818359375	87.9415283203125	522.82763671875	1425.955810546875	116.7660903930664	791.5946044921875	1470.446411132812	-40.15578842163086	46.87205123901367	1404.294067382812	57.42252349853516	402.2689819335938	1426.165649414062	190.6033020019531	45.26150131225586	1353.566650390625	125.7615966796875	49.47486114501953	1326.578857421875	110.2189331054688	43.90317153930664	1421.690063476562	-97.50530242919922	48.04268646240234	1360.591064453125	
4	0.03	-25.26616668701172	1071.678955078125	1387.005981445312	-38.14398574829102	1063.876342773438	1223.544921875	-40.00815963745117	1124.116943359375	1296.44482421875	174.0236358642578	1320.706176757812	1294.335205078125	-72.40287017822266	1268.163940429688	1294.2431640625	-27.48727989196777	1536.903686523438	1281.962768554688	131.0075378417969	1445.5849609375	1289.431762695312	-76.88618469238281	1399.481689453125	1364.069091796875	-43.35831832885742	1494.909057617188	1183.823974609375	60.28286361694336	1501.49267578125	1110.840209960938	34.52570724487305	1373.940673828125	1034.207275390625	42.32165145874023	1154.058959960938	1016.360473632812	-11.58479499816895	1141.585205078125	1107.827880859375	137.0812835693359	904.5872802734375	1074.788940429688	59.77773284912109	886.9096069335938	1034.025146484375	57.34397506713867	1038.450317382812	1012.421875	170.9611053466797	724.5303955078125	1100.156372070312	95.724609375	797.16455078125	1037.669311523438	161.5677642822266	812.4764404296875	1063.349975585938	50.72571182250977	1521.8203125	1458.537475585938	39.03270721435547	1451.368408203125	1529.541381835938	9.544927597045898	1179.348388671875	1549.5634765625	10.91751384735107	1153.39501953125	1452.490356445312	144.6434936523438	921.8096313476562	1519.040771484375	77.83978271484375	905.0143432617188	1578.742065429688	23.66288566589355	1103.302856445312	1563.137329101562	160.8085632324219	739.9690551757812	1501.443969726562	180.4019165039062	812.9945068359375	1534.901977539062	120.7720642089844	806.4393310546875	1580.420776367188	-3.627470731735229	1713.17431640625	1257.677856445312	211.1849365234375	1739.107543945312	1287.613647460938	166.9156341552734	1739.175903320312	1199.681640625	67.81638336181641	1710.640258789062	1383.006713867188	52.69219207763672	961.9168090820312	1109.463989257812	96.09478759765625	959.3226318359375	1478.183349609375	193.4989318847656	993.1583251953125	1398.03662109375	172.3785858154297	1011.6513671875	1164.390747070312	87.51484680175781	518.671875	1149.3310546875	67.87967681884766	654.955078125	1117.902465820312	-35.79256057739258	43.75550079345703	1149.437255859375	-8.408836364746094	290.7410888671875	1134.197387695312	188.1900329589844	38.31722259521484	1195.783081054688	130.3563232421875	48.2763786315918	1215.936401367188	86.13967132568359	39.52853393554688	1119.3564453125	-100.1214370727539	50.71665191650391	1207.156860351562	88.11525726318359	522.8182983398438	1425.846069335938	116.9730377197266	791.5619506835938	1470.349975585938	-40.16022491455078	46.86008071899414	1404.282348632812	57.56350326538086	402.2698364257812	1426.093139648438	190.6102142333984	45.26255035400391	1353.56103515625	125.7614059448242	49.46864318847656	1326.570922851562	110.2174530029297	43.89979553222656	1421.677124023438	-97.50006103515625	48.0527229309082	1360.596069335938	
